PathFileType	4	(X/Y/Z)	
DataRate	CameraRate	NumFrames	NumMarkers	Units	OrigDataRate	OrigDataStartFrame	OrigNumFrames
100	100	4	41	m	100	27	110
Frame#	Time	LELB			LSHO			RSHO			LUPA			LBHD			RUPA			RBHD			C7			RWRB			LWRB			RELB			RBAK			LANK			LKNE			LPSI			T10			LBTO			RPSI			RKNE			LTIB			RTIB			LTHI			RBTO			RTOE			RANK			RHEE			RTHI			LHEE			LFRM			LWRA			RFRM			LFIN			RFIN			RFHD			RWRA			RASI			LTOE			STRN			CLAV			LASI			LFHD			
		X1	Y1	Z1	X2	Y2	Z2	X3	Y3	Z3	X4	Y4	Z4	X5	Y5	Z5	X6	Y6	Z6	X7	Y7	Z7	X8	Y8	Z8	X9	Y9	Z9	X10	Y10	Z10	X11	Y11	Z11	X12	Y12	Z12	X13	Y13	Z13	X14	Y14	Z14	X15	Y15	Z15	X16	Y16	Z16	X17	Y17	Z17	X18	Y18	Z18	X19	Y19	Z19	X20	Y20	Z20	X21	Y21	Z21	X22	Y22	Z22	X23	Y23	Z23	X24	Y24	Z24	X25	Y25	Z25	X26	Y26	Z26	X27	Y27	Z27	X28	Y28	Z28	X29	Y29	Z29	X30	Y30	Z30	X31	Y31	Z31	X32	Y32	Z32	X33	Y33	Z33	X34	Y34	Z34	X35	Y35	Z35	X36	Y36	Z36	X37	Y37	Z37	X38	Y38	Z38	X39	Y39	Z39	X40	Y40	Z40	X41	Y41	Z41	X42	Y42	Z42	X43	Y43	Z43	

28	0.27	0.5546904296875	1.19233337402344	-1.09486843970063	0.477836059570312	1.53233239746094	-1.12008584692719	0.0991437759399414	1.53408361816406	-1.14908584692719	0.521450927734375	1.387435546875	-1.11315756323578	0.366870727539063	1.66986657714844	-1.14015506079438	0.0221626930236816	1.27211193847656	-1.15364157202484	0.218091873168945	1.68065625	-1.14686801245453	0.288885711669922	1.57329138183594	-1.19676321509125	0.0166324977874756	0.909184020996094	-1.08711367895844	0.553682373046875	0.913409729003906	-1.07408474829438	0.00367914199829102	1.17838110351563	-1.14215396216156	0.148453796386719	1.47349584960938	-1.24193411352875	0.363007019042969	0.0668935089111329	-1.14990988257172	0.417118316650391	0.526595886230469	-1.10537814429047	0.322737854003906	1.11204382324219	-1.23842349341156	0.306328704833984	1.29266918945313	-1.26419992163422	0.311929046630859	0.0345102767944336	-0.941790192630313	0.254171173095703	1.10719287109375	-1.23693844702484	0.140824493408203	0.536282897949219	-0.995043671634219	0.416764923095703	0.365655456542969	-1.11506668188813	0.13833349609375	0.410998748779297	-1.08290054419281	0.440160003662109	0.687642822265625	-1.09035971167328	0.181580215454102	0.047308837890625	-1.07007779028656	0.174442611694336	0.0725315170288086	-1.1242265939975	0.193944808959961	0.173363342285156	-1.24274667456391	0.249943664550781	0.166394577026367	-1.30327987768891	0.128005157470703	0.686554321289062	-1.00035092261078	0.331976715087891	0.0335942344665528	-1.21814218237641	0.542548034667969	0.952325805664063	-1.03433548071625	0.493647979736328	0.92035693359375	-1.02511612036469	0.0123292446136475	0.963912353515625	-1.06465994360688	0.530750305175781	0.843259399414062	-0.982886567142032	0.0227339878082275	0.836486999511719	-0.989335053470157	0.224271957397461	1.75442004394531	-1.01359988501313	0.0660372924804687	0.928167663574219	-1.02839981177094	0.16331086730957	1.06867053222656	-1.06006106665375	0.340490570068359	0.0381186485290528	-0.996603913333438	0.289786865234375	1.30791381835938	-1.02694992163422	0.283089324951172	1.44062512207031	-1.0484648752475	0.422539154052734	1.07235412597656	-1.06440664770844	0.351307647705078	1.74412902832031	-1.00509079077484
29	0.28	0.555423950195313	1.19353942871094	-1.09181385509246	0.477905487060547	1.53336608886719	-1.11843208019012	0.0992984237670898	1.53397802734375	-1.14908790294402	0.521804077148437	1.38861584472656	-1.1108196534323	0.366507659912109	1.67044299316406	-1.13892963878387	0.0221148147583008	1.27217626953125	-1.15489704601043	0.217737289428711	1.68096252441406	-1.1459870728659	0.289018157958984	1.57331604003906	-1.19556605235808	0.0162390823364258	0.909189331054687	-1.08875916759246	0.553472473144531	0.914952270507812	-1.06816309825652	0.00349452209472656	1.17837475585938	-1.1438548096823	0.149153686523437	1.47358764648438	-1.24175544444793	0.362597991943359	0.0668470001220704	-1.16172260753387	0.417156585693359	0.526319213867187	-1.11282838145965	0.323278961181641	1.11239660644531	-1.2380003174948	0.307394866943359	1.29318688964844	-1.26356428233855	0.311859436035156	0.034447509765625	-0.953618908803397	0.254665405273438	1.10772729492188	-1.23652619640105	0.141508178710938	0.538384338378906	-0.988187817494804	0.416652282714844	0.365282409667969	-1.12381428233855	0.13866618347168	0.407829895019531	-1.07017762462371	0.440219268798828	0.687316467285156	-1.09542908946746	0.178967880249023	0.0471015090942383	-1.03608533946746	0.172709671020508	0.0687044372558594	-1.09166920177215	0.194385604858398	0.16116047668457	-1.21633674327605	0.250521820068359	0.15007421875	-1.27580549327605	0.128435607910156	0.689522338867188	-0.995451245229179	0.331753662109375	0.0339170951843262	-1.2301823853659	0.542172790527344	0.954293090820313	-1.02891303722137	0.493058166503906	0.922555603027344	-1.01976813976043	0.0116358737945557	0.963878845214844	-1.0663571900534	0.529445861816406	0.845713684082031	-0.976474316518241	0.0213920974731445	0.836563354492188	-0.990825329701835	0.223547927856445	1.75437768554688	-1.01254389659637	0.0649942855834961	0.928338439941406	-1.02943751231902	0.164638748168945	1.0696591796875	-1.05955158702605	0.340354888916016	0.0380213928222657	-1.0084382447409	0.290150817871094	1.30819689941406	-1.02634565440887	0.283054229736328	1.44106311035156	-1.04771400157683	0.423893615722656	1.0721171875	-1.0643206299948	0.350548248291016	1.74438000488281	-1.00373524181121
30	0.29	0.556149108886719	1.19447631835937	-1.08874718552336	0.477970886230469	1.53410522460937	-1.11681035691008	0.0994223251342773	1.53361804199219	-1.14897313767179	0.522215637207031	1.38948266601562	-1.10871300583586	0.366115417480469	1.67074462890625	-1.13772203903898	0.0220793781280518	1.27198608398438	-1.15597502976164	0.217393249511719	1.6809453125	-1.14506176071867	0.289249969482422	1.57370092773437	-1.19492626267179	0.0158251094818115	0.908956115722656	-1.09036956101164	0.553239135742188	0.916236633300781	-1.06217333298429	0.00329447221755981	1.17815283203125	-1.14535112839445	0.149815017700195	1.4734599609375	-1.24149102097258	0.362194122314453	0.0669209747314454	-1.17366875534758	0.417146881103516	0.526022094726562	-1.12029473191008	0.323860778808594	1.11238806152344	-1.23745702439054	0.308341644287109	1.29336889648438	-1.26289452439054	0.311744018554688	0.0343990936279297	-0.965284416968669	0.255147094726562	1.10798596191406	-1.23609050827726	0.142173110961914	0.539861511230469	-0.981978691871013	0.416649261474609	0.365132720947266	-1.13273400192961	0.138695083618164	0.403656158447266	-1.05737542038664	0.440687774658203	0.686957885742188	-1.10044811325773	0.176206314086914	0.0472227401733399	-1.00195891648039	0.170599700927734	0.0651940536499024	-1.05879839401945	0.194999908447266	0.148673889160156	-1.18888994675383	0.251340393066406	0.133523986816406	-1.24692260056242	0.128793197631836	0.691826538085938	-0.991193779761638	0.331133880615234	0.0336928901672364	-1.24203746872648	0.54176220703125	0.956026733398437	-1.02346611862883	0.492438751220703	0.924500793457031	-1.01438738327726	0.0109722452163696	0.963572265625	-1.06797710495695	0.52811669921875	0.848014404296875	-0.969988335425701	0.0200994892120361	0.836358703613281	-0.992330803687419	0.22281233215332	1.75410961914063	-1.01157958298429	0.0639800109863281	0.928126098632812	-1.0305303276132	0.165848968505859	1.07038452148438	-1.05888695603117	0.340312805175781	0.03790775680542	-1.02029558640226	0.290428924560547	1.30816247558594	-1.02565746384367	0.282989227294922	1.44115515136719	-1.04690984421476	0.425061737060547	1.07161315917969	-1.0643447807382	0.349728912353516	1.74440161132813	-1.00245092087492
31	0.3	0.556844482421875	1.19516003417969	-1.08566659993863	0.478029846191406	1.53452648925781	-1.11519351644254	0.0995255126953125	1.53300476074219	-1.14872769613004	0.522670776367188	1.39002270507813	-1.10676523275113	0.365664916992188	1.67068444824219	-1.13653628988004	0.0220509757995605	1.27154382324219	-1.15691202230191	0.217033874511719	1.68060241699219	-1.14409720296597	0.289390045166016	1.57362878417969	-1.194092137048	0.0154185361862183	0.908466552734375	-1.09191714925504	0.552951721191406	0.917251770019531	-1.05613950032925	0.00309619855880737	1.17771215820312	-1.14665305013394	0.150400360107422	1.47305163574219	-1.24112686605191	0.361613708496094	0.0666588287353516	-1.18534286946988	0.417112274169922	0.525702087402344	-1.12774112386441	0.324274475097656	1.11206689453125	-1.23681125325894	0.309154907226563	1.29332751464844	-1.26219424886441	0.311527923583984	0.0343625869750977	-0.97695889730191	0.255603164672852	1.10793786621094	-1.23563919515347	0.142767593383789	0.540740966796875	-0.976494297692535	0.416570343017578	0.365030395507813	-1.14206369466519	0.138733383178711	0.398691619873047	-1.04441006917691	0.441120239257813	0.686556396484375	-1.10535940999722	0.173282562255859	0.047947982788086	-0.967748997399566	0.168356216430664	0.0623273849487305	-1.02552878255582	0.195401779174805	0.136704315185547	-1.16037100667691	0.252285858154297	0.117140602111816	-1.21687521810269	0.129267868041992	0.693636840820313	-0.987496617028473	0.330628570556641	0.0338530349731446	-1.25394986409879	0.541311889648437	0.957508239746094	-1.01800290364957	0.491800628662109	0.926210205078125	-1.00898172445035	0.0103589820861816	0.96301806640625	-1.0695169417355	0.526779602050781	0.850169372558594	-0.963435154626129	0.0188709201812744	0.83586083984375	-0.993845371911285	0.222080810546875	1.75363549804688	-1.01058560628629	0.063067440032959	0.927603393554688	-1.03165744466519	0.166884216308594	1.07097619628906	-1.05791855306363	0.340449645996094	0.0380100860595704	-1.03213937825894	0.290614624023438	1.30782934570312	-1.02489688558316	0.282904327392578	1.44088745117188	-1.04603824300504	0.426001159667969	1.07103686523437	-1.06407315511441	0.348930145263672	1.7441728515625	-1.00125784749722
